<svg role="img" viewBox="0 0 26 28" xmlns="http://www.w3.org/2000/svg"><title>金山文档</title><defs><linearGradient id="a" x1="0" y1="1" x2="1" y2="0"><stop stop-color="#1a4acc"/><stop offset="1" stop-color="#0854e4"/></linearGradient><linearGradient id="b" x1=".5" y1="1" x2=".5" y2="0"><stop stop-color="#0a5df6"/><stop offset="1" stop-color="#124cdc"/></linearGradient><linearGradient id="c" x1=".5" y1="0" x2=".5" y2="1"><stop stop-color="#4ac3ff"/><stop offset="1" stop-color="#0e93f8"/></linearGradient></defs><path fill="#0062ff" d="m6.2 17 5.3 3.1v7.3L.4 20.8a.3.3 0 0 1 0-.4z"/><path fill="url(#a)" d="m24.6 13.5.2 7.2L13 27.1v-7.2z"/><path fill="url(#b)" d="M24.8 20.7V6.6l-5.4 2.9v6.9z"/><path fill="#0082ff" d="m6.2 9.9 5.7 2.9v7.1L.4 13.5a.3.3 0 0 1 0-.4z"/><path fill="url(#c)" d="M12.4.1 1 6.5a.3.3 0 0 0 0 .4l11.6 6.6 11.8-7L12.8.1a.5.5 0 0 0-.4 0"/></svg>
